<svg xmlns="http://www.w3.org/2000/svg" width="78" height="18" fill="none" viewBox="0 0 78 18"><path fill="#b3b3b3" d="M4.18296 9.7461c.02335-.00015.0467-.00031.07075-.00047.07687-.00039.15373-.00014.2306.00017.05359-.00006.10718-.00015.16077-.00026.1122-.00013.22439.00006.33659.00048.14367.00051.28732.00021.43098-.00032.11063-.00033.22125-.00022.33188.00001.05297.00006.10593-.00002.1589-.00022.07408-.00023.14814.00012.22223.00061.03268-.00027.03268-.00027.06603-.00055.13639.0017.21523.02389.3278.10166.01448.00914.02897.01829.04389.02771.06148.0467.08932.08102.11417.15408-.00429.266-.1219.4122-.30426.591-.02483.0249-.04963.05-.07438.075-.06784.0685-.13621.1364-.20469.2042-.07387.0733-.14723.1471-.22065.2209-.14377.1443-.28801.2881-.43242.4318-.16814.1673-.33582.3351-.50349.5028-.29911.2993-.59866.5981-.89845.8967-.29098.2898-.5816.58-.87186.8705-.31612.3164-.63241.6326-.94902.9485-.01673.0167-.03347.0334-.05071.0506-.03361.0336-.06721.0671-.10082.1006-.11708.1169-.23403.2338-.35095.3508-.14239.1425-.28499.2847-.42785.4268-.0729.0724-.14572.145-.21829.2178-.0664.0666-.133051.1329-.199914.1991-.024179.024-.048264.0481-.072246.0723-.032552.0328-.065427.0653-.098408.0977-.0182.0181-.036401.0363-.055153.055-.064853.0483-.109376.0585-.189482.0635-.079908-.0297-.148309-.0782-.219604-.1245-.019488-.0118-.038976-.0236-.059054-.0358C.0383474 16.1568.0383474 16.1568 0 16.0688c.00888362-.0863.0423965-.1405.0908314-.2098.0209406-.0317.0417656-.0634.0625066-.0953.01207-.0184.02414-.0369.036575-.0559.07499-.1179.145331-.2387.216263-.3591.144942-.2459.29137-.4908.439981-.7346.134764-.2211.267983-.443.400043-.6658.00883-.0149.01767-.0298.02677-.0451.06293-.1062.12579-.2123.18864-.3185.07176-.1213.14355-.2425.2154-.3637.00884-.0149.01768-.0298.02679-.0452.1308-.2205.26314-.44.39659-.6589.12807-.2101.25417-.4213.37951-.6331.14801-.2501.29766-.4991.44903-.7471.0866-.1421.17221-.2847.25681-.428.01426-.0242.01426-.0242.02881-.0488.04614-.0781.09217-.1563.13804-.2346.40156-.68276.40156-.68276.83037-.6792M1.88683 0c.10976.0115167.18939.0472827.28202.104207.01399.008366.02799.016732.0424.025352.04585.027482.0915.055263.13717.083051.03224.019411.0645.038804.09677.058179.09753.058654.19482.117702.29208.176811.02776.016846.05552.03369.08329.05053.10221.062014.2044.124073.30649.186296.19743.120249.396.238502.59494.356244.23748.14056.47403.2825.70965.42616.21013.12807.42138.25418.63315.37952.23748.14056.47403.2825.70965.42616.21013.12807.42138.25417.63315.37952.25203.14921.50332.29952.75324.45223.11976.07317.23967.14594.36061.21712.05747.03385.11481.06793.17213.10203.02715.01606.05437.03201.08166.04784.20701.12015.3748.24042.46752.46763.00983.07823.00941.15587.00904.23464.00024.03501.00023.03501.00047.07073.00041.07699.00032.15397.0002.23097.0001.05362.00022.10724.00035.16087.0002.11233.00015.22466-.00007.33699-.00026.14384.00019.28767.00084.43151.00041.11072.00041.22144.00028.33216 0 .05303.00013.10606.00041.15909.00033.07419.00009.14836-.00029.22255.00022.02183.00043.04366.00066.06615-.00216.19974-.08149.31663-.21331.46232-.05409.02705-.07897.02225-.13847.01539-.01648-.00176-.03295-.00352-.04992-.00533-.13764-.02395-.22778-.05417-.32768-.15397-.01551-.01526-.01551-.01526-.03133-.03083-.0345-.03409-.06858-.06856-.10268-.10305-.02493-.02479-.04988-.04957-.07485-.07432-.0685-.06803-.13664-.1364-.20473-.20484-.07351-.07377-.14735-.14721-.22114-.2207-.14448-.14398-.28865-.28826-.43272-.43265-.11707-.11732-.23425-.23453-.3515-.35167-.01668-.01666-.03336-.03332-.05055-.05049-.03389-.03385-.06777-.0677-.10166-.10155-.3178-.31748-.63525-.6353-.95259-.95324-.27241-.27291-.54512-.54553-.81804-.81794-.31683-.31623-.63347-.63264-.94983-.94934-.03372-.03375-.06744-.06751-.10116-.10126-.01659-.01661-.03318-.03322-.05027-.05033-.11705-.11714-.23422-.23415-.35144-.35111-.1428-.14248-.2854-.28516-.42774-.4281-.07265-.07295-.1454-.14581-.21839-.21843-.06677-.066439-.13328-.133131-.19959-.200036-.02407-.024195-.04823-.048296-.0725-.072293C1.77964.758197 1.74708.7253 1.7146.692298c-.01819-.018213-.03639-.036425-.05513-.05519C1.61102.572168 1.6005.527929 1.59589.4476c.02416-.056332.02416-.056332.06146-.111026.01319-.019761.02639-.039523.03999-.059884.01406-.020223.02813-.040446.04262-.061282.01398-.020743.02795-.041486.04235-.062857C1.81682.101458 1.85165.0506325 1.88683 0M11.8657 9.74067c.0235-.0002.047-.0004.0712-.00061.0772-.00047.1543.00002.2314.00058.054-.00004.1079-.00011.1618-.00023.1128-.0001.2256.00028.3384.001.1443.00089.2885.00068.4328.00013.1113-.00032.2225-.00009.3338.0003.0532.00013.1064.0001.1595-.00009.0745-.00018.1489.00037.2234.0011.0326-.00029.0326-.00029.0659-.00058.1818.00308.3051.06351.4418.18143.0537.06311.0987.1284.1415.1991.0138.0223.0138.0223.0278.0452.123.201.2423.4043.3623.6071.1176.1988.2366.3967.3568.5939.1451.238.2879.4773.4299.7171.124.2094.2491.418.3758.6257.1451.238.2879.4773.4299.7171.1239.2094.2491.418.3758.6257.1359.2229.2699.4468.4028.6714.1382.2335.2774.4662.4183.698.015.0247.03.0494.0454.0748.0216.0355.0216.0355.0436.0717.0139.0229.0278.0459.0421.0696.031.0501.0625.0994.0952.1484.0084.013.0168.0259.0255.0392.0235.0359.0473.0716.0712.1073.0372.0804.0364.1176.0085.201-.0344.0351-.0344.0351-.0782.0605-.0158.0094-.0316.0189-.0478.0287-.0249.014-.0249.014-.0503.0283-.0164.0097-.0328.0194-.0497.0294-.0306.018-.0612.0358-.092.0534-.0366.0214-.072.0447-.1073.0683-.1016-.0047-.1476-.0471-.2176-.1175-.0206-.0205-.0412-.0411-.0624-.0622-.0226-.0229-.0452-.0458-.0677-.0688-.024-.024-.048-.048-.0719-.072-.0652-.0652-.13-.1306-.1948-.1962-.068-.0686-.1362-.1369-.2044-.2053-.1293-.1297-.2584-.2596-.3874-.3896-.1889-.1904-.3781-.3805-.5674-.5705-.0139-.0139-.0278-.0279-.0421-.0423l-.0834-.0837c-.081-.0813-.1619-.1628-.2428-.2443-.0505-.0509-.101-.1017-.1516-.1526-.0233-.0234-.0466-.0469-.0698-.0704-.1433-.1452-.1433-.1452-.2946-.2819-.1494-.1282-.2856-.2713-.4246-.4105-.0333-.0332-.0665-.0665-.0998-.0997-.0899-.0897-.1797-.1796-.2695-.2695-.094-.0941-.1882-.1881-.2823-.2822-.1578-.1579-.3157-.3157-.4735-.4736q-.27375-.27405-.5478-.5478c-.1569-.1568-.3138-.3137-.4706-.4706-.0936-.0936-.1873-.1873-.281-.2809-.0879-.0879-.1759-.1759-.2637-.2639-.0323-.0323-.0646-.0646-.097-.0969-.044-.044-.088-.088-.1319-.1321-.0129-.0128-.0258-.0257-.0391-.0389-.126-.1267-.1708-.2394-.1913-.4139.0134-.10071.0627-.14548.139-.20907.1357-.09991.2377-.11941.4039-.11706M16.0086 0c.0518.0027975.0518.0027975.1119.02238.0737.083598.1357.175811.1972.26856.0094.013502.0188.027003.0285.040914.0661.100148.0661.100148.0624.16981-.0248.073414-.0597.10895-.1146.163548-.0205.020609-.0411.041218-.0622.062451-.0229.022566-.0458.045128-.0688.067685q-.036.0359415-.072.07194c-.0652.065124-.1306.129969-.1961.194772-.0687.06797-.137.1362-.2054.20441-.1297.12931-.2596.2584-.3896.38741-.1904.1889-.3804.37807-.5705.56731-.0139.01392-.0279.02784-.0423.04218-.0279.02778-.0558.05555-.0837.08333-.0813.08101-.1628.16194-.2443.24281-.0509.05051-.1017.10108-.1526.15165-.0234.02329-.0469.04657-.0704.06982-.1452.14327-.1452.14327-.2819.29451-.1282.14945-.2713.28566-.4105.42468-.0332.03325-.0664.06649-.0996.09975-.0898.08988-.1797.1797-.2696.2695-.0941.09406-.1881.18818-.2822.28228-.1578.15788-.3157.31571-.4736.47352-.1827.18254-.3653.36516-.5478.54782-.1568.1569-.3137.31377-.4706.47059-.0936.09364-.1873.18729-.2809.28099-.0879.08796-.1759.17588-.2639.26375-.0323.03229-.0646.06461-.0969.09695-.044.04403-.088.08799-.1321.13193-.0128.0129-.0256.02579-.0389.03908-.1266.12604-.2393.17077-.4139.19131-.1007-.01343-.1455-.06268-.20905-.13904-.09966-.13539-.11951-.23731-.11743-.40319-.00024-.02342-.00047-.04685-.00072-.07099-.00058-.07693-.0002-.15382.00026-.23075-.00009-.05382-.00022-.10763-.00039-.16145-.0002-.11261.00009-.22521.00072-.33782.00076-.14386.00032-.28769-.00048-.43155-.00049-.11109-.00033-.22218.00001-.33328.00009-.05301-.00002-.10603-.00033-.15904-.00253-.5467-.00253-.5467.15258-.71783.07046-.06156.14313-.10936.22383-.15666.0247-.01508.0495-.03016.075-.0457.0703-.04266.1411-.08447.212-.12605.0797-.0467.1592-.09371.2387-.14069.0242-.01428.0242-.01428.0489-.02884.1524-.0901.3037-.18194.4549-.27417.2379-.14512.4772-.28791.717-.42987.2094-.12397.418-.24914.6258-.37581.2379-.14507.4771-.28787.7169-.42981.2118-.12536.4227-.25199.6328-.38007.2753-.16771.5522-.332429.8298-.496333.3668-.216699.7336-.433515 1.0977-.654834.0216-.013116.0432-.026232.0655-.039745.0292-.0178014.0292-.0178014.0589-.0359628.0169-.0103028.0338-.0206056.0512-.0312206C15.9853.024914 15.9853.024914 16.0086 0M10.1898 11.3467c.0259.0046.0517.0092.0783.014.1822.0715.3219.2487.4581.3852.0192.0191.0384.0383.0582.058.0521.0521.1042.1042.1563.1564.0548.0549.1097.1097.1646.1645.0921.0921.1841.1842.2761.2763.106.1061.2121.2121.3182.3181.0915.0914.183.1829.2744.2744.0544.0544.1089.1089.1634.1633.0607.0607.1215.1215.1821.1823.0178.0178.0356.0355.0539.0538.0167.0167.0335.0335.0507.0508.0143.0143.0286.0287.0434.0434.0426.0451.0833.0911.1239.1381.0777.0892.1594.1731.2435.2562.0154.0153.0308.0306.0467.0464.0511.0508.1024.1016.1536.1523.0369.0367.0738.0733.1107.1099.0791.0787.1583.1573.2375.2358.1252.1243.2502.2486.3751.373.0213.0213.0427.0425.064.0637.0431.043.0863.0859.1294.1289.1107.1101.2213.2203.332.3304.0111.011.0221.0221.0336.0335.1802.1793.3606.3584.5412.5374.1855.1839.3708.3682.5557.5528.1038.1035.2078.2069.312.3099.098.0968.1955.1939.2928.2913.0358.0358.0718.0714.1078.1068.0492.0483.0978.0971.1463.146.0145.014.029.028.044.0425.036.0369.0673.0703.0942.1143-.002.1326-.0695.2237-.1399.3315-.0107.0174-.0214.0347-.0325.0526-.0106.0165-.0212.033-.0322.05-.0096.0149-.0192.0299-.0291.0453-.0484.049-.0782.0555-.1468.0577-.0623-.0263-.0623-.0263-.1309-.0676-.0125-.0075-.025-.0149-.0379-.0226-.0414-.0246-.0825-.0497-.1235-.0748-.0292-.0175-.0584-.035-.0876-.0524-.0754-.0452-.1505-.0908-.2256-.1365-.0412-.0251-.0825-.0501-.1237-.0751-.102-.0618-.204-.1236-.3058-.1857-.2024-.1235-.406-.2449-.6099-.3658-.0154-.0091-.0307-.0182-.0466-.0276-.0305-.018-.0609-.0361-.0914-.0542-.0147-.0087-.0294-.0174-.0446-.0263-.0144-.0086-.0289-.0172-.0438-.026-.1321-.0783-.2638-.1573-.3955-.2366-.1121-.0674-.2244-.1343-.337-.2009-.0147-.0088-.0294-.0175-.0445-.0264-.015-.0089-.0299-.0178-.0453-.0269-.2721-.1612-.5435-.3234-.8135-.488-.2102-.1281-.4214-.2542-.6332-.3796-.2501-.148-.4991-.2977-.7472-.449-.1416-.0863-.2836-.1717-.4264-.256-.0159-.0095-.0319-.0189-.0484-.0287-.0774-.0457-.1549-.0914-.2325-.137-.0825-.0485-.1647-.0977-.2464-.1476-.0129-.0079-.0259-.0158-.0392-.0239-.0372-.023-.0741-.0464-.1109-.0699-.0209-.0133-.04187-.0266-.06344-.0404-.11244-.0916-.16669-.2232-.21167-.3581-.00234-.0324-.00349-.0649-.00389-.0973-.00029-.0199-.00058-.0398-.00088-.0603-.0002-.0218-.0004-.0435-.00061-.0659-.00029-.023-.00058-.046-.00088-.0697-.00284-.2404-.00411-.481-.00526-.7215-.0006-.114-.00169-.228-.00321-.342-.00184-.1378-.00279-.2755-.00313-.4133-.00027-.0524-.00085-.1048-.00175-.1572-.00809-.4951-.00809-.4951.15357-.6746.10285-.0891.16335-.0856.29125-.0614M17.537 1.58984c.0611.02171.1085.04571.1618.08245.0266.01807.0266.01807.0538.0365.0181.01262.0362.02525.0548.03825.0186.01271.0372.02542.0564.03851.0457.03125.0912.06271.1366.09437-.0115.10976-.0472.18939-.1042.28202-.0083.014-.0167.02799-.0253.04241-.0275.04584-.0553.0915-.0831.13716-.0194.03225-.0388.06451-.0582.09677-.0586.09754-.1177.19483-.1768.29208-.0168.02776-.0337.05553-.0505.08329-.062.10222-.1241.20441-.1863.30649-.1202.19743-.2385.39601-.3562.59494-.1406.23748-.2825.47403-.4262.70965-.1373.22522-.2722.45178-.4065.67876-.1248.21087-.251.42082-.3787.62999-.1281.20995-.2537.42117-.3776.63363-.1395.23921-.2815.47674-.4259.71302-.0857.14038-.1706.2812-.2543.42277-.0184.03089-.0367.06178-.055.09267-.0266.04481-.0532.08964-.0795.13459-.0243.04134-.0487.08255-.0732.12374-.0138.02355-.0277.04711-.042.07137-.0707.10425-.149.17957-.2605.23784-.0257.01367-.0257.01367-.052.02762-.0682.03487-.1079.04808-.1847.04901-.0201.00029-.0401.00058-.0607.00088-.0221.0002-.0442.0004-.0669.00061-.0232.00029-.0463.00058-.0702.00088-.2431.00284-.4862.00411-.7292.00526-.1153.0006-.2305.00169-.3458.00321-.1392.00184-.2784.00279-.4176.00312-.053.00028-.1059.00086-.1589.00176-.5006.00809-.5006.00809-.6796-.15358-.0832-.0966-.0832-.0966-.0847-.15732.0022-.01651.0044-.03301.0067-.05001.002-.01627.0039-.03254.0059-.04931.0036-.01881.0072-.03762.0109-.05699.0035-.02265.007-.04529.0106-.06861.0374-.1273.1415-.21022.2336-.30058.0207-.02072.0413-.04145.0626-.06281.0566-.05666.1135-.11298.1704-.16923.0597-.05911.1192-.11853.1786-.17792.1-.09974.2001-.19927.3004-.29866.141-.13971.2816-.2798.4221-.41996.0978-.09751.1957-.19492.2936-.29232.0236-.02349.0472-.04699.0708-.07049.0778-.07744.1557-.15476.2337-.23204.0194-.01928.0387-.03856.0587-.05843.0183-.01807.0365-.03613.0553-.05475.0156-.01549.0313-.03099.0474-.04695.0462-.04365.0931-.08535.1412-.12688.0891-.0775.1728-.15909.2558-.24305.0153-.01542.0306-.03083.0464-.04671.0508-.05116.1016-.1024.1523-.15364.0367-.03689.0733-.07377.1099-.11065.0787-.07915.1573-.15834.2358-.23754.1243-.12516.2486-.25016.373-.37512.0213-.02132.0425-.04265.0637-.06397.043-.04315.086-.0863.1289-.12945.1102-.11062.2203-.22126.3304-.33191.011-.0111.0221-.02219.0335-.03362.1793-.18021.3584-.36067.5374-.5412.1839-.18554.3682-.37077.5528-.55576.1035-.1038.2069-.20773.3099-.31201.0968-.09792.1939-.19546.2913-.29273.0358-.03582.0714-.07177.1068-.10787.0483-.04912.0971-.09774.146-.14627.014-.0145.028-.029.0425-.04394.0966-.0944.0966-.09441.188-.09334M7.93363 11.3159c.10073.0134.14557.0627.20907.1391.09902.1347.11952.2357.11743.4007.00035.0348.00035.0348.00071.0702.00059.0761.0002.1522-.00025.2283.00009.0532.00022.1065.00038.1598.0002.1114-.00008.2229-.00071.3343-.00077.1423-.00033.2846.00048.4269.00048.11.00033.2199-.00002.3299-.00009.0524.00002.1049.00033.1573.00256.5466.00256.5466-.15258.7384-.06993.0631-.14219.1098-.2238.1567-.02474.015-.04949.0301-.07498.0456-.07031.0427-.1411.0846-.21208.1261-.07968.0467-.15918.0938-.23869.1407-.01612.0096-.03225.0191-.04885.0289-.15242.0901-.30374.1819-.45488.2741-.23796.1452-.47722.288-.71708.4299-.20938.124-.41796.2491-.62572.3758-.23797.1451-.47722.2879-.71708.4299-.20938.124-.41796.2491-.62572.3758-.31095.1895-.62399.3754-.93734.5609-.12495.074-.24983.148-.37468.2222-.06083.0361-.1217.0721-.1826.1081-.13127.0777-.26209.1559-.39151.2366-.02076.0129-.04153.0257-.06292.039-.0374.0232-.07465.0467-.11168.0706-.06618.041-.11489.0699-.19283.0783-.08401-.047-.12062-.1232-.16768-.2051-.00979-.0164-.01959-.0328-.02968-.0497-.01822-.0306-.0363-.0612-.05417-.092-.02169-.0365-.04507-.072-.06861-.1073.00448-.1026.04858-.1493.11935-.2202.01021-.0104.02042-.0207.03095-.0314.03439-.0348.0691-.0692.10381-.1037.02493-.025.04984-.0501.07473-.0752.06855-.069.13738-.1378.20626-.2065.0742-.074.14814-.1484.22212-.2227.14501-.1456.29027-.2909.43563-.4362.11812-.118.23617-.2361.35416-.3543.01678-.0168.03355-.0336.05084-.0509.03408-.0342.06816-.0683.10225-.1025.31982-.3203.63995-.6403.96015-.9602.29303-.2928.58568-.586.87817-.8793.30018-.3011.60062-.6019.90133-.9024.16887-.1688.33764-.3377.50616-.5068.14347-.144.28718-.2878.43119-.4313.07348-.0732.14685-.1465.21994-.2201.06691-.0674.13412-.1345.20158-.2013.02435-.0243.04859-.0486.0727-.0731.15155-.1536.24951-.2264.46642-.2519M.566407 1.61136c.052735.04146.052735.04146.108363.09697.010355.01022.020711.02043.03138.03095.03477.0344.06921.0691.103662.10382.025063.02493.050145.04983.075245.07472.069014.06856.137743.13739.206433.20627.07409.0742.14843.14814.22275.22211.14558.14502.29092.29028.43617.43563.11804.11813.23617.23617.35435.35416.02521.02517.02521.02517.05092.05084.03414.03409.06827.06817.10241.10225.32032.31983.64034.63995.96028.96016.29279.29302.58595.58568.87928.87816.30106.30019.60186.60062.9024.90133.16879.16887.33767.33764.50682.50616.14401.14347.28778.28718.43125.43119.07322.07349.14654.14686.22016.21994.06739.06691.13447.13412.2013.20158.02423.02435.04858.04859.07305.07271.22536.22229.22536.22229.24352.39507.00277.02355.00554.04709.00839.07134-.01343.10072-.06267.14552-.13903.20907-.13539.09966-.23731.11951-.40319.11743-.02343.00024-.04685.00047-.07099.00071-.07693.00059-.15382.0002-.23076-.00025-.05381.00009-.10763.00022-.16144.00039-.11262.0002-.22521-.00009-.33783-.00072-.14386-.00076-.28768-.00032-.43154.00048-.1111.00049-.22218.00033-.33328-.00002-.05302-.00008-.10603.00002-.15905.00034-.54669.00252-.54669.00252-.71782-.15258-.06156-.07046-.10936-.14313-.15666-.2238-.01508-.02475-.03016-.0495-.0457-.07499-.04267-.07032-.08448-.14111-.12606-.21208-.0467-.07968-.0937-.15918-.14069-.23869-.00951-.01612-.01903-.03224-.02884-.04885-.09009-.15242-.18194-.30374-.27416-.45488-.14512-.23795-.28792-.47722-.42988-.71707-.12396-.20939-.24913-.41797-.3758-.62573-.14508-.23793-.28787-.47714-.42981-.71696-.12537-.21176-.25199-.4227-.38007-.63283-.15991-.26244-.317174-.52637-.473444-.79099-.085625-.14498-.171517-.2898-.257461-.43459-.026986-.0455-.053927-.09102-.080861-.13654-.085549-.14445-.17181-.28837-.259939-.43125q-.0239595-.039075-.047901-.07815c-.029652-.04826-.059529-.09639-.089663-.14435C.0896478 2.11856.0766242 2.0973.0632059 2.0754c-.0114748-.01842-.0229496-.03683-.0347721-.0558-.02152765-.05016-.02152765-.05016-.0169653-.09879.0441019-.1012.1754535-.16011.2639975-.21993.017223-.01229.034446-.02458.052191-.03724.022632-.01549.022632-.01549.045722-.0313.013097-.00903.026195-.01806.039689-.02736.059694-.02305.092336-.01213.153339.00638M60.9264 14.7642l-.0723.0003c.0328 0 .0654-.0002.0979-.0006-.0085.0001-.0171.0003-.0256.0003M72.5412 3.25471c1.1955.00001 2.1888.2757 2.9732.80529l.0372.02543.0377.02639.001.00068.0009.00068c.7884.58569 1.2083 1.46894 1.2566 2.64703l.0043.10642H74.763l-.0093-.09283c-.0613-.61218-.2851-1.05901-.6635-1.35462-.3803-.29702-.9323-.45377-1.6753-.45377-.6645 0-1.1592.13409-1.5128.38964-.3516.25412-.5256.58887-.5256 1.01367 0 .41325.1142.66701.3342.7963l.0009.00049.0195.0109.0007.00039.0016.00087.0024.00141c.2674.15749.8664.35208 1.8316.58079l.0033.00075.0033.00099c.2182.0657.3882.10831.5206.13791l.0002.00005.054.01182.0002.00003.0002.00005.0011.00024.0015.00036.0003.00007c1.2455.30385 2.11.58008 2.5817.83052l.0002.00012.0002.0001c.5116.26606.9019.60903 1.1638 1.0303.2619.42122.3918.91502.3918 1.47782 0 .4997-.0973.9381-.2599 1.33l-.0005.0011-.0001.0003-.0001.0002-.0005.0013c-.1783.4058-.407.7375-.7034 1.0073-.2936.2672-.6504.4857-1.0369.6566l-.0005.0003-.0382.0174-.0368.0165c-.3808.1681-.7742.282-1.1666.3548l-.001.0002h-.0004c-.4342.0775-.8831.1083-1.3301.1083-1.4376 0-2.6001-.3234-3.4924-.9957l-.0004-.0003-.0004-.0003-.0214-.0156c-.9008-.6627-1.3288-1.6488-1.3288-2.9234v-.1025h2.1579v.1025c0 .7679.2592 1.3263.7615 1.6823.5127.3632 1.1821.5423 2.0345.5423.7457 0 1.3028-.135 1.7026-.4204.3983-.2843.6041-.6643.6041-1.1806 0-.3092-.1161-.572-.3162-.7648-.2123-.2045-.4516-.362-.6859-.447l-.001-.0003c-.263-.0893-.7139-.2094-1.3588-.37612l-.0015-.00039-.0015-.00029c-.0652-.01265-.1329-.02767-.1801-.04675l-.0034-.00141-.0037-.00085-.1293-.03107c-1.3221-.31957-2.2019-.59886-2.6425-.82577l-.0006-.00029-.0441-.02234c-.9195-.47295-1.4168-1.19654-1.4813-2.1761l-.0001-.00025-.0002-.0031V6.5208c0-.98678.376-1.77756 1.161-2.37646.7819-.59653 1.8184-.88963 3.0984-.88963M58.2948 3.46765v7.08375c0 .8203.2205 1.4127.6421 1.8012.4221.3889 1.0648.5907 1.9488.5907.5305 0 .9699-.0605 1.2962-.2034l.0002-.0001.0018-.0008.0017-.0007h.0001c.3269-.1289.5743-.3266.7347-.6066l.0002-.0004.0003-.0005c.1536-.2814.2755-.5907.3363-.913.0616-.3264.093-.7457.093-1.25958V3.46765h2.1894v6.73395c0 1.4906-.3867 2.6238-1.1774 3.3838-.791.7602-1.968 1.1295-3.5081 1.1295-1.6096 0-2.8111-.3685-3.5969-1.1258-.7857-.7571-1.1517-1.8988-1.1517-3.4179V3.46765zM75.2701 14.3108c-.3593.1623-.73.2761-1.1005.3524.0639-.0131.1277-.0274.1916-.0428.0127-.0031.0255-.0062.0383-.0094.0765-.0191.153-.0399.2293-.0625.0127-.0038.0254-.0076.0381-.0115.1524-.0464.304-.1001.4539-.1618.0125-.0051.025-.0103.0374-.0156.025-.0105.0499-.0212.0747-.0322z"/><path fill="#b3b3b3" fill-rule="evenodd" d="m30.6594 3.45243 4.4439 11.04947h-2.36l-1.0785-2.8746h-4.319l-1.1102 2.8746h-2.2799l4.4438-11.04947zm-2.727 6.5402h3.1331l-1.5305-4.1539z" clip-rule="evenodd"/><path fill="#b3b3b3" d="M39.2029 3.46765v9.18675h5.7137v1.8475h-7.9188V3.46765zM54.018 3.46765v1.84758h-3.583v9.18667h-2.1893V5.31523h-3.583V3.46765zM64.3586 13.6571c-.061.0568-.1242.1114-.1895.1637.0654-.0524.1286-.107.1897-.1639zM72.2612 12.9557l.0357.0038c-.0132-.0014-.0263-.0028-.0394-.0043.0013.0002.0025.0003.0037.0005M60.5349 12.8822c-.0014-.0001-.0029-.0002-.0043-.0003.0125.0009.025.0017.0377.0025zM77.0909 12.563l-.0153.0374c.009-.0216.0177-.0434.0263-.0653-.0037.0093-.0073.0186-.011.0279M74.5341 12.5481q-.01545.0117-.0315.0231c.0049-.0034.0097-.0069.0144-.0104zM63.2027 11.2382c-.0039.0195-.0081.039-.0125.0583.0022-.0095.0043-.0191.0063-.0287zM67.8221 10.8706c.0008.0695.0029.1382.0062.206-.0024-.0482-.0042-.0968-.0052-.1459zM70.0818 10.9488c-.001-.0228-.0017-.0459-.0022-.0692l-.0005-.0344c.0003.035.0012.0695.0027.1036M58.3604 10.916q-.01275-.13935-.0153-.2898l-.0005-.0369c.001.1135.0063.2224.0158.3267M74.799 10.7219c.0114.0116.0225.0234.0333.0355q-.0081-.009-.0162-.0177zM77.184 10.2614c.0078.0227.0153.0456.0225.0686l.0071.023c-.0093-.0308-.0192-.0613-.0296-.0916M56.0561 10.2424c.0003.035.0008.0697.0014.1043-.0002-.0112-.0004-.0224-.0006-.0335zM77.0449 9.93277c.0287.05633.0553.11383.0798.17233-.0062-.0146-.0124-.0292-.0188-.0437-.0032-.0072-.0064-.0145-.0097-.0217-.0162-.0361-.0333-.07173-.0513-.10693M76.9147 9.70689c.0043.00664.0086.01329.0129.01997l.0126.02012c-.0042-.00672-.0084-.01344-.0126-.02012zM76.5505 9.26296c.029.02846.0573.0574.0847.08684-.011-.01178-.0221-.02345-.0333-.03507-.0057-.00581-.0113-.01161-.017-.01738q-.00855-.008655-.0171-.01725zM76.4793 9.19561c.0121.01106.0241.0222.0359.03342l.0177.01692c-.0176-.01696-.0354-.03374-.0536-.05034M76.2278 8.9897c.0479.03518.0943.07129.1393.10838-.0129-.01059-.0259-.02109-.0389-.03153-.0197-.01566-.0395-.03115-.0597-.04646-.0134-.0102-.027-.02034-.0407-.03039M75.4761 8.56593c.0287.01228.0565.02448.0835.03665v.00002c-.009-.00405-.0181-.00812-.0273-.01219-.0183-.00814-.0371-.01629-.0562-.02448M74.7483 8.30019c.0542.01738.1068.03465.1579.05184-.0256-.00859-.0515-.0172-.0778-.02584zM70.5169 6.87649c.0017.0037.0035.00735.0053.01098-.0018-.00374-.0037-.00751-.0055-.01132zM70.4272 6.31276c-.0005.01221-.0008.0245-.001.03687l-.0001.01909c0-.01884.0004-.03749.0011-.05596M70.8999 5.41848c-.0021.00159-.0041.0032-.0062.0048.0021-.00167.0043-.00334.0065-.005zM76.4577 5.02869c.0073.01342.0146.02691.0218.04047l.0213.04091c-.007-.0137-.0141-.02734-.0213-.04091zM72.2638 5.01747c-.0135.00044-.0269.00097-.0402.00153.0036-.00015.0071-.00032.0107-.00046zM72.3841 5.01514q-.0306.000195-.0606.00078l-.03.00068c.0199-.00052.0399-.00091.0602-.00117zM72.4997 5.01575c-.0054-.00009-.0108-.00017-.0163-.00024l-.0341-.00037c.0169.00011.0337.00033.0504.00061M75.5421 4.01885l.0377.02574c-.0196-.01357-.0394-.02693-.0593-.04019.0072.00482.0145.00959.0216.01445M74.0425 5.44511l.0171.01319q-.00855-.006735-.0174-.01338c.0001.00007.0002.00013.0003.00019"/></svg>